# xmcd
#
# Track frame offsets:
#	150
#	21040
#	40865
#	56670
#	77715
#	93742
#	108837
#	129182
#	148807
#	171602
#	184167
#
# Disc length: 2721
#
# Revision: 1
# Processed by: cddbd v1.5.1PL0 Copyright (c) Steve Scherf et al.
# Submitted via: CDex 1.50
# Normalized: r0:TDELIM( - )
#
DISCID=950a9f0b
DTITLE=Mato Grosso - El Chiman
DYEAR=2002
DGENRE=Blues
TTITLE0=Dattoli - Io Vagabondo
TTITLE1=M.Gabriel Pena - El Chiman
TTITLE2=P. Anka - My Way
TTITLE3=L. Battisti - I Giardini Di Marzo Il Mio Canto Libero
TTITLE4=Bob Dylan - Knockin'on Heaven's Door
TTITLE5=Califano/Cannio - 'o Surdato 'Nnammurato
TTITLE6=M.Gabriel Pena - Mal Amigo
TTITLE7=M.Holm/K.Schutltze - Geronimo's Laughter
TTITLE8=M.Jackson - We Are The World
TTITLE9=C. Almaran - Historia De Un Amor
TTITLE10=A.Baracco - Quien Sabe
EXTD=YEAR: 2002
EXTT0=
EXTT1=
EXTT2=
EXTT3=
EXTT4=
EXTT5=
EXTT6=
EXTT7=
EXTT8=
EXTT9=
EXTT10=
PLAYORDER=
